<?xml version="1.0" standalone="no"?>
<!DOCTYPE svg PUBLIC "-//W3C//DTD SVG 20010904//EN"
 "http://www.w3.org/TR/2001/REC-SVG-20010904/DTD/svg10.dtd">
<svg version="1.0" xmlns="http://www.w3.org/2000/svg"
 width="500.000000pt" height="500.000000pt" viewBox="0 0 500.000000 500.000000"
 preserveAspectRatio="xMidYMid meet">

<g transform="translate(0.000000,500.000000) scale(0.100000,-0.100000)"
fill="#000000" stroke="none">
<path d="M2265 4186 c-366 -60 -683 -218 -944 -471 -240 -232 -391 -494 -472
-814 -100 -394 -38 -857 162 -1206 307 -537 877 -875 1476 -875 355 0 684 101
980 302 264 178 508 488 621 788 83 222 118 433 108 660 -18 437 -185 810
-505 1131 -245 244 -522 395 -866 470 -126 27 -434 36 -560 15z m515 -151
c183 -40 432 -144 567 -236 281 -193 490 -453 613 -763 97 -247 122 -564 65
-840 -79 -382 -328 -747 -665 -976 -81 -55 -231 -128 -352 -171 -278 -99 -574
-114 -874 -44 -398 94 -786 385 -989 745 -253 448 -268 976 -40 1431 69 138
116 207 222 331 240 278 589 473 953 533 111 19 395 13 500 -10z"/>
<path d="M2285 3795 c-489 -103 -899 -448 -1085 -912 -126 -315 -112 -651 40
-952 66 -133 136 -228 243 -333 123 -121 235 -197 393 -265 412 -176 800 -178
1219 -6 150 62 235 112 361 214 146 119 300 345 364 538 59 175 66 463 16 651
-117 444 -367 760 -754 954 -206 103 -341 136 -550 135 -103 0 -164 -6 -247
-24z m398 -100 c73 -6 206 -44 272 -78 82 -41 262 -152 332 -204 106 -79 241
-250 317 -400 36 -73 100 -255 120 -343 41 -181 38 -360 -11 -514 -33 -107
-101 -242 -163 -326 -57 -77 -184 -201 -250 -244 -25 -16 -61 -40 -82 -53 -60
-40 -248 -120 -343 -146 -195 -54 -418 -69 -616 -41 -262 36 -504 157 -687
344 -140 143 -208 252 -275 445 -47 136 -61 230 -54 368 11 216 85 410 231
607 213 287 490 479 804 556 98 24 268 44 317 38 11 -2 51 -5 88 -9z"/>
<path d="M2770 3440 c0 -13 7 -20 20 -20 13 0 20 7 20 20 0 13 -7 20 -20 20
-13 0 -20 -7 -20 -20z"/>
<path d="M2912 3388 c-29 -29 6 -83 50 -76 27 4 38 49 17 74 -14 17 -51 18
-67 2z"/>
<path d="M3023 3189 c-86 -42 -136 -126 -135 -224 0 -75 19 -120 71 -172 58
-58 103 -77 183 -77 60 0 71 3 121 37 97 63 134 162 103 269 -18 64 -80 139
-137 168 -53 28 -150 27 -206 -1z m192 -93 c35 -35 41 -69 18 -108 -48 -83
-173 -44 -173 53 0 11 13 34 29 50 38 38 91 40 126 5z m-105 -226 c17 -33 -4
-62 -43 -58 -27 3 -33 8 -35 32 -2 16 2 32 10 37 23 15 57 10 68 -11z"/>
<path d="M1937 3036 c-73 -30 -90 -46 -122 -109 -51 -103 -24 -245 61 -315 42
-35 111 -62 158 -62 124 0 235 98 252 222 15 109 -64 238 -167 271 -69 23
-113 21 -182 -7z m195 -95 c81 -72 -4 -190 -106 -147 -43 18 -61 52 -52 100
14 75 99 100 158 47z m-137 -221 c15 -17 16 -24 6 -46 -13 -30 -47 -30 -67 1
-12 18 -11 24 2 43 19 27 36 28 59 2z"/>
<path d="M2890 2660 c-12 -12 -20 -33 -20 -54 0 -48 -37 -97 -95 -126 -42 -21
-64 -25 -135 -25 -107 0 -174 29 -205 88 -35 66 -97 62 -103 -6 -3 -32 3 -43
43 -86 28 -30 69 -59 108 -77 55 -25 73 -29 162 -29 89 0 107 3 160 28 108 51
174 136 175 225 0 44 -25 82 -55 82 -8 0 -24 -9 -35 -20z"/>
<path d="M1401 2614 c-17 -14 -31 -21 -31 -14 0 6 -4 8 -10 5 -5 -3 -11 0 -11
7 -4 46 -17 -66 -18 -158 -2 -207 48 -371 165 -546 113 -168 246 -284 429
-374 279 -138 625 -161 934 -62 104 33 262 98 320 131 168 97 348 299 416 465
21 52 23 65 13 82 -7 11 -16 20 -21 20 -4 0 -5 -4 -2 -10 3 -5 1 -10 -5 -10
-7 0 -10 -7 -6 -15 3 -8 1 -15 -5 -15 -5 0 -12 -8 -16 -17 -3 -10 -26 -49 -51
-88 -57 -89 -164 -196 -266 -264 -64 -43 -90 -55 -135 -60 -31 -4 -75 -17 -98
-30 -35 -20 -49 -23 -85 -16 -24 4 -65 7 -93 6 -297 -10 -442 3 -671 64 -221
58 -334 134 -522 350 -40 46 -54 67 -104 159 -20 37 -23 125 -7 227 13 85 8
108 -32 154 -37 42 -48 43 -88 9z"/>
<path d="M3426 2312 c-11 -32 4 -53 33 -50 22 2 26 8 26 33 0 25 -4 31 -27 33
-19 2 -28 -2 -32 -16z"/>
<path d="M3238 2234 c-15 -33 -1 -58 36 -62 33 -4 56 13 56 42 0 51 -71 66
-92 20z"/>
<path d="M3610 2160 c0 -5 5 -10 11 -10 5 0 7 5 4 10 -3 6 -8 10 -11 10 -2 0
-4 -4 -4 -10z"/>
<path d="M1826 2034 c-30 -30 -13 -74 29 -74 12 0 26 5 33 12 7 7 12 21 12 33
0 42 -44 59 -74 29z"/>
<path d="M2547 2044 c-4 -4 -7 -16 -7 -26 0 -14 6 -19 23 -16 14 2 22 10 22
23 0 20 -25 32 -38 19z"/>
<path d="M2427 2013 c-12 -11 -7 -33 8 -39 20 -8 45 13 38 32 -5 14 -34 19
-46 7z"/>
<path d="M2684 1785 c-9 -22 9 -37 37 -33 16 2 24 10 24 23 0 26 -52 35 -61
10z"/>
</g>
</svg>
